# xmcd
#
# Track frame offsets:
#   150
#   22418
#   40752
#   58857
#   81626
#   98923
#   118266
#   140145
#   163305
#   178520
#   191776
#   208974
#   232539
#
# Disc length: 3436 seconds
#
# Revision: 0
# Processed by: cddbd v1.5.1PL0 Copyright (c) Steve Scherf et al.
# Submitted via: Media_Universe 3.0
#
DISCID=c80d6a0d
DTITLE=BIG AND RICH - Horse Of A Different Color
DYEAR=2004
DGENRE=Country
TTITLE0=Rollin
TTITLE1=Wild West Show
TTITLE2=Big Time
TTITLE3=Kick My Ass
TTITLE4=Six Foot Town
TTITLE5=Holy Water
TTITLE6=Saved
TTITLE7=Real World
TTITLE8=Save A Horse (ride a cowboy)
TTITLE9=Drinkin' Bout You
TTITLE10=Love Train
TTITLE11=Deadwood Mountain
TTITLE12=Live This Life
EXTD=
EXTT0=
EXTT1=
EXTT2=
EXTT3=
EXTT4=
EXTT5=
EXTT6=
EXTT7=
EXTT8=
EXTT9=
EXTT10=
EXTT11=
EXTT12=
PLAYORDER=
